Coordinates
version=1
nRows=16
nColumns=30
inDegrees=yes

Units are S.I. units (second, meters, Newtons, ...)
Angles are in degrees.

endheader
time	floatyaw	floatroll	floatpitch	floatx	floaty	floatz	pro_sup_l	deviation_l	flexion_l	cmc_flexion_l	cmc_abduction_l	mp_flexion_l	ip_flexion_l	2mcp_flexion_l	2mcp_abduction_l	2pm_flexion_l	2md_flexion_l	3mcp_flexion_l	3mcp_abduction_l	3pm_flexion_l	3md_flexion_l	4mcp_flexion_l	4mcp_abduction_l	4pm_flexion_l	4md_flexion_l	5mcp_flexion_l	5mcp_abduction_l	5pm_flexion_l	5md_flexion_l
-0.995000	-160.147433	-5.066637	-73.570646	0.081802	-0.181759	-0.016568	99.964718	4.104854	0.613308	17.517664	10.933425	-25.743632	-43.054009	27.732402	6.546411	43.449302	29.374896	23.623436	3.883160	42.847072	27.899604	12.012409	-4.233373	50.869494	34.523858	0.332211	-7.632010	59.122309	41.029643
-0.985000	-160.147433	-5.066637	-73.570646	0.081767	-0.181730	-0.016614	99.951836	4.112529	0.617003	17.492966	10.918034	-25.741629	-43.032605	27.727472	6.549428	43.416091	29.367417	23.623389	3.887102	42.827611	27.897858	12.004438	-4.231548	50.866017	34.522610	0.312782	-7.624599	59.136831	41.033393
-0.975000	-160.147433	-5.066637	-73.570646	0.081731	-0.181706	-0.016656	99.931428	4.115833	0.616654	17.461618	10.897900	-25.728631	-43.004928	27.740551	6.550520	43.382987	29.356678	23.628244	3.886826	42.823833	27.905892	12.003749	-4.228459	50.857888	34.519081	0.293767	-7.620120	59.157519	41.039800
-0.965000	-160.147433	-5.066637	-73.570646	0.081692	-0.181689	-0.016694	99.903498	4.114735	0.612850	17.427219	10.884049	-25.709785	-42.979209	27.768217	6.550799	43.354259	29.343642	23.635137	3.882381	42.839048	27.923181	12.009872	-4.225403	50.846907	34.515037	0.277764	-7.619773	59.180195	41.048562
-0.955000	-160.147433	-5.066637	-73.570646	0.081654	-0.181678	-0.016731	99.871268	4.110424	0.607780	17.395890	10.882860	-25.692798	-42.963783	27.802698	6.551096	43.330377	29.328950	23.639822	3.875202	42.871019	27.946367	12.019930	-4.223742	50.836403	34.512342	0.266216	-7.621559	59.198673	41.058034
-0.945000	-160.147433	-5.066637	-73.570646	0.081620	-0.181672	-0.016765	99.840017	4.104718	0.604144	17.373352	10.893984	-25.684782	-42.964759	27.835691	6.551786	43.308308	29.312743	23.639217	3.867776	42.911801	27.969948	12.029956	-4.224169	50.829622	34.512165	0.259184	-7.622353	59.208113	41.066057
-0.935000	-160.147433	-5.066637	-73.570646	0.081590	-0.181673	-0.016799	99.815005	4.099212	0.604064	17.361949	10.911886	-25.688965	-42.983781	27.861666	6.552973	43.284087	29.295275	23.633407	3.862762	42.950090	27.988011	12.036534	-4.226309	50.828195	34.514588	0.255737	-7.620696	59.208085	41.071269
-0.925000	-160.147433	-5.066637	-73.570646	0.081568	-0.181682	-0.016832	99.799671	4.094683	0.608703	17.359295	10.929685	-25.702940	-43.016532	27.878823	6.554792	43.256258	29.278069	23.625456	3.861934	42.975792	27.996724	12.037798	-4.228913	50.831780	34.518878	0.254416	-7.618221	59.203485	41.074168
-0.915000	-160.147433	-5.066637	-73.570646	0.081552	-0.181699	-0.016862	99.794988	4.091030	0.618490	17.359357	10.942775	-25.719478	-43.053021	27.887819	6.557581	43.227952	29.264542	23.619200	3.865527	42.984498	27.996243	12.033461	-4.230543	50.839034	34.524204	0.253420	-7.618735	59.202602	41.077147
-0.905000	-160.147433	-5.066637	-73.570646	0.081542	-0.181724	-0.016887	99.800056	4.087672	0.633261	17.355338	10.950092	-25.729635	-43.080341	27.889961	6.561806	43.206094	29.259159	23.616858	3.872368	42.978973	27.990570	12.024288	-4.230358	50.849067	34.530250	0.250760	-7.625694	59.213254	41.083301
-0.895000	-160.147433	-5.066637	-73.570646	0.081538	-0.181753	-0.016905	99.813199	4.084072	0.652051	17.342658	10.952764	-25.726673	-43.087128	27.886232	6.567797	43.197958	29.265261	23.618075	3.880577	42.966779	27.985239	12.011562	-4.228513	50.862098	34.537185	0.244738	-7.639821	59.238795	41.094505
-0.885000	-160.147433	-5.066637	-73.570646	0.081539	-0.181779	-0.016915	99.832601	4.080049	0.673012	17.320388	10.951651	-25.708937	-43.067600	27.877302	6.575428	43.206943	29.282888	23.620495	3.888307	42.955854	27.984401	11.996653	-4.225947	50.878769	34.545002	0.234636	-7.658315	59.275832	41.109808
-0.875000	-160.147433	-5.066637	-73.570646	0.081544	-0.181799	-0.016917	99.856214	4.075769	0.693951	17.290647	10.945789	-25.680489	-43.023354	27.863987	6.583906	43.230115	29.308117	23.621081	3.894108	42.950874	27.989083	11.980683	-4.223735	50.898766	34.552805	0.221174	-7.675993	59.314907	41.125137
-0.865000	-160.147433	-5.066637	-73.570646	0.081554	-0.181807	-0.016917	99.881441	4.071547	0.713193	17.256758	10.932921	-25.649506	-42.962688	27.847857	6.591884	43.259134	29.334420	23.617631	3.897003	42.952006	27.997178	11.964506	-4.222524	50.920050	34.558714	0.206430	-7.687596	59.344266	41.134757
-0.855000	-160.147433	-5.066637	-73.570646	0.081568	-0.181804	-0.016916	99.905149	4.067656	0.729963	17.221430	10.911775	-25.625479	-42.898568	27.831940	6.597940	43.284027	29.355160	23.610179	3.896535	42.956052	28.004663	11.949146	-4.222430	50.939495	34.560596	0.193262	-7.689995	59.355118	41.133887
-0.845000	-160.147433	-5.066637	-73.570646	0.081586	-0.181793	-0.016916	99.923990	4.064224	0.743924	17.185783	10.884494	-25.616422	-42.846096	27.821149	6.601181	43.297519	29.365780	23.601615	3.892916	42.959004	28.007345	11.936351	-4.223406	50.954533	34.557209	0.184461	-7.683270	59.345591	41.121074
